<?xml version="1.0" encoding="UTF-8"?>
<svg version="1.1" xmlns="http://www.w3.org/2000/svg" width="512" height="512">
<path d="M0 0 C1.01790619 0.00215515 2.03581238 0.0043103 3.08456421 0.00653076 C17.69363523 0.05620146 32.02575853 0.30709809 46.375 3.3125 C47.34985352 3.51117676 48.32470703 3.70985352 49.32910156 3.91455078 C97.7109774 14.03517194 141.69928269 35.9516877 177.375 70.3125 C178.3640332 71.26068604 178.3640332 71.26068604 179.37304688 72.22802734 C188.86130305 81.37247479 197.6012044 90.66984009 205.375 101.3125 C206.23306152 102.46355017 207.09113451 103.61459177 207.94921875 104.765625 C213.98736829 112.95680614 219.34595521 121.47054105 224.375 130.3125 C224.73948242 130.94430176 225.10396484 131.57610352 225.47949219 132.22705078 C247.08534998 169.97532572 256.85198095 212.74189997 256.6875 255.9375 C256.68534485 256.95540619 256.6831897 257.97331238 256.68096924 259.02206421 C256.63129854 273.63113523 256.38040191 287.96325853 253.375 302.3125 C253.07698486 303.77478027 253.07698486 303.77478027 252.77294922 305.26660156 C242.52138226 354.27446698 220.18217348 398.27864199 185.375 434.3125 C184.77606934 434.93334473 184.17713867 435.55418945 183.56005859 436.19384766 C175.89623497 444.09500259 168.15501606 451.64016955 159.375 458.3125 C158.83472168 458.72918945 158.29444336 459.14587891 157.73779297 459.57519531 C125.8687531 484.07334707 89.31685217 500.56439938 49.9375 508.625 C49.21860596 508.77235596 48.49971191 508.91971191 47.7590332 509.0715332 C33.08339502 511.86090125 18.55831162 512.66142619 3.64770508 512.62817383 C0.70811513 512.6250221 -2.2304558 512.64854926 -5.16992188 512.67382812 C-18.54306192 512.71848737 -31.43916711 511.51301542 -44.625 509.3125 C-46.33055054 509.03031616 -46.33055054 509.03031616 -48.07055664 508.74243164 C-50.6662622 508.27617402 -53.23774939 507.7574418 -55.8125 507.1875 C-57.20142456 506.88054199 -57.20142456 506.88054199 -58.6184082 506.56738281 C-103.71300222 496.08183329 -144.40193368 473.34639441 -177.625 441.3125 C-178.58889648 440.38945068 -178.58889648 440.38945068 -179.57226562 439.44775391 C-188.74836539 430.62136647 -197.09816554 421.58141996 -204.625 411.3125 C-205.26211914 410.45857666 -205.26211914 410.45857666 -205.91210938 409.58740234 C-212.42768015 400.84658179 -218.26088547 391.80163672 -223.625 382.3125 C-224.0271875 381.60528809 -224.429375 380.89807617 -224.84375 380.16943359 C-237.8691741 357.03404164 -246.61801461 331.86287591 -251.9375 305.875 C-252.08485596 305.15610596 -252.23221191 304.43721191 -252.3840332 303.6965332 C-255.35789088 288.05024391 -255.99800362 272.57681954 -255.9375 256.6875 C-255.93534485 255.66959381 -255.9331897 254.65168762 -255.93096924 253.60293579 C-255.88129854 238.99386477 -255.63040191 224.66174147 -252.625 210.3125 C-252.42632324 209.33764648 -252.22764648 208.36279297 -252.02294922 207.35839844 C-241.90232806 158.9765226 -219.9858123 114.98821731 -185.625 79.3125 C-184.99287598 78.65314453 -184.36075195 77.99378906 -183.70947266 77.31445312 C-174.56502521 67.82619695 -165.26765991 59.0862956 -154.625 51.3125 C-153.47394983 50.45443848 -152.32290823 49.59636549 -151.171875 48.73828125 C-142.98224019 42.70072604 -134.47961724 37.31792698 -125.625 32.3125 C-124.91778809 31.9103125 -124.21057617 31.508125 -123.48193359 31.09375 C-100.34654164 18.0683259 -75.17537591 9.31948539 -49.1875 4 C-48.46860596 3.85264404 -47.74971191 3.70528809 -47.0090332 3.5534668 C-31.36274391 0.57960912 -15.88931954 -0.06050362 0 0 Z " fill="#F5BABA" transform="translate(255.625,-0.3125)"/>
<path d="M0 0 C0.90363281 0.40089844 1.80726563 0.80179688 2.73828125 1.21484375 C10.71338434 5.10651358 16.73031862 10.850679 23 17 C27.06604192 15.68095664 31.03249836 14.21402489 35 12.625 C67.45732077 0.1640354 99.89263111 1.58779561 132 14 C133.52536962 14.57470357 135.05137398 15.14772635 136.578125 15.71875 C137.70734375 16.1415625 138.8365625 16.564375 140 17 C140.78310547 16.25556641 140.78310547 16.25556641 141.58203125 15.49609375 C157.58431831 0.72690762 173.31357329 -4.78420837 194.69677734 -4.12744141 C199.21207864 -3.87760175 202.93521664 -2.94553734 207 -1 C207.97066406 -0.5359375 208.94132812 -0.071875 209.94140625 0.40625 C221.82692491 6.7134589 228.92420179 15.63680579 234 28 C235.38160912 32.66687651 235.22300949 37.29369911 235.25 42.125 C235.2809375 43.47464844 235.2809375 43.47464844 235.3125 44.8515625 C235.39571026 59.33014689 229.18816161 71.29321707 219.375 81.703125 C214.72823498 86.19703591 209.88091499 90.25116783 204 93 C204.28875 94.10730469 204.5775 95.21460938 204.875 96.35546875 C213.18429705 130.92022155 207.40302142 164.86240154 189 195 C186.22532971 199.21488027 183.23931007 203.13271382 180 207 C179.57412598 207.51481934 179.14825195 208.02963867 178.70947266 208.56005859 C159.11994763 231.95806582 129.5342162 248.61990859 99 252 C94.13324144 252.25383949 89.28544974 252.33015489 84.4128418 252.31567383 C82.20115521 252.31251948 79.99081876 252.33603816 77.77929688 252.36132812 C68.48627732 252.40266758 60.04362838 251.33509225 51 249 C49.8399646 248.73376831 49.8399646 248.73376831 48.65649414 248.4621582 C31.20641912 244.43816113 14.58562871 235.61097337 1 224 C0.01 223.15953125 -0.98 222.3190625 -2 221.453125 C-18.12833136 207.39674695 -29.23460401 190.88989463 -37 171 C-37.37898438 170.07832031 -37.75796875 169.15664063 -38.1484375 168.20703125 C-47.35827123 144.7669657 -46.30386034 117.11379586 -40 93 C-40.68964844 92.59910156 -41.37929687 92.19820313 -42.08984375 91.78515625 C-56.3247076 83.17394232 -65.87276536 71.74077937 -70.42431641 55.62133789 C-71.37275579 51.3026807 -71.5323899 47.09744645 -71.5 42.6875 C-71.49427979 41.77323242 -71.48855957 40.85896484 -71.48266602 39.91699219 C-71.17136115 28.04757699 -67.16690421 18.71478876 -59 10 C-58.41605469 9.37480469 -57.83210938 8.74960938 -57.23046875 8.10546875 C-42.78657667 -5.85189223 -17.85814043 -8.61837639 0 0 Z " fill="#FDD68E" transform="translate(174,132)"/>
<path d="M0 0 C0.90363281 0.40089844 1.80726563 0.80179688 2.73828125 1.21484375 C10.71338434 5.10651358 16.73031862 10.850679 23 17 C27.06604192 15.68095664 31.03249836 14.21402489 35 12.625 C67.45732077 0.1640354 99.89263111 1.58779561 132 14 C133.52536962 14.57470357 135.05137398 15.14772635 136.578125 15.71875 C137.70734375 16.1415625 138.8365625 16.564375 140 17 C140.78310547 16.25556641 140.78310547 16.25556641 141.58203125 15.49609375 C157.58431831 0.72690762 173.31357329 -4.78420837 194.69677734 -4.12744141 C199.21207864 -3.87760175 202.93521664 -2.94553734 207 -1 C207.97066406 -0.5359375 208.94132812 -0.071875 209.94140625 0.40625 C221.82692491 6.7134589 228.92420179 15.63680579 234 28 C235.38160912 32.66687651 235.22300949 37.29369911 235.25 42.125 C235.2809375 43.47464844 235.2809375 43.47464844 235.3125 44.8515625 C235.39571026 59.33014689 229.18816161 71.29321707 219.375 81.703125 C214.72823498 86.19703591 209.88091499 90.25116783 204 93 C204.28875 94.10730469 204.5775 95.21460938 204.875 96.35546875 C213.18429705 130.92022155 207.40302142 164.86240154 189 195 C186.22532971 199.21488027 183.23931007 203.13271382 180 207 C179.57412598 207.51481934 179.14825195 208.02963867 178.70947266 208.56005859 C159.11994763 231.95806582 129.5342162 248.61990859 99 252 C94.13324144 252.25383949 89.28544974 252.33015489 84.4128418 252.31567383 C82.20115521 252.31251948 79.99081876 252.33603816 77.77929688 252.36132812 C68.48627732 252.40266758 60.04362838 251.33509225 51 249 C49.8399646 248.73376831 49.8399646 248.73376831 48.65649414 248.4621582 C31.20641912 244.43816113 14.58562871 235.61097337 1 224 C0.01 223.15953125 -0.98 222.3190625 -2 221.453125 C-18.12833136 207.39674695 -29.23460401 190.88989463 -37 171 C-37.37898438 170.07832031 -37.75796875 169.15664063 -38.1484375 168.20703125 C-47.35827123 144.7669657 -46.30386034 117.11379586 -40 93 C-40.68964844 92.59910156 -41.37929687 92.19820313 -42.08984375 91.78515625 C-56.3247076 83.17394232 -65.87276536 71.74077937 -70.42431641 55.62133789 C-71.37275579 51.3026807 -71.5323899 47.09744645 -71.5 42.6875 C-71.49427979 41.77323242 -71.48855957 40.85896484 -71.48266602 39.91699219 C-71.17136115 28.04757699 -67.16690421 18.71478876 -59 10 C-58.41605469 9.37480469 -57.83210938 8.74960938 -57.23046875 8.10546875 C-42.78657667 -5.85189223 -17.85814043 -8.61837639 0 0 Z M-6.48242188 53.66210938 C-27.6012821 78.48308055 -35.9257268 107.70341028 -34 140 C-31.46644601 163.27985949 -21.8997634 185.74086751 -6 203 C-5.49871582 203.54897949 -4.99743164 204.09795898 -4.48095703 204.66357422 C14.12875834 224.83105351 41.18656858 240.74938032 69.19702148 242.16113281 C90.32776776 242.72299994 90.32776776 242.72299994 111 239 C111.68352539 238.80664062 112.36705078 238.61328125 113.07128906 238.4140625 C143.207413 229.81511564 168.67050853 210.60930288 184.1875 183.22265625 C198.20182425 157.27165582 202.41784718 126.65457028 194.4777832 98.08007812 C191.72420576 88.86356781 187.65067086 80.39672245 183 72 C182.46761719 71.03578125 181.93523437 70.0715625 181.38671875 69.078125 C165.41360745 42.28451894 139.21050385 25.12883836 109.4699707 17.50878906 C100.82459011 15.38177292 92.58454199 14.78420036 83.69946289 14.75976562 C81.59935197 14.75016841 79.50026803 14.71914775 77.40039062 14.6875 C45.36944815 14.43421367 14.73093388 29.87743777 -6.48242188 53.66210938 Z " fill="#353535" transform="translate(174,132)"/>
<path d="M0 0 C2.26110973 0.91108337 4.22745257 2.00149385 6.32421875 3.234375 C8.12808533 4.26337411 8.12808533 4.26337411 10.75 3.375 C11.4925 2.92125 12.235 2.4675 13 2 C18.00557267 -0.99234234 23.34419941 -0.6004192 29 0 C34.66042735 1.85999833 38.17284155 5.8254765 41.0859375 10.88671875 C43.15516254 15.67069631 42.38871913 20.69664762 40.9375 25.5625 C36.35136021 33.69919963 28.98899711 40.29986078 22.5 46.9375 C21.68402344 47.79923828 20.86804688 48.66097656 20.02734375 49.54882812 C18.82271484 50.77569336 18.82271484 50.77569336 17.59375 52.02734375 C16.87896484 52.76718506 16.16417969 53.50702637 15.42773438 54.26928711 C12.13364267 56.61761938 10.04663243 57.09730117 6 57 C3.50250065 55.2515948 1.77948889 53.76793033 -0.265625 51.5859375 C-0.82570251 51.01928375 -1.38578003 50.45263 -1.96282959 49.86880493 C-3.74471902 48.055466 -5.4964429 46.21570532 -7.25 44.375 C-8.44356757 43.15844184 -9.63886405 41.94357735 -10.8359375 40.73046875 C-11.98072853 39.55881569 -13.12400952 38.38568492 -14.265625 37.2109375 C-14.79690002 36.66488861 -15.32817505 36.11883972 -15.87554932 35.5562439 C-21.86603978 29.25678657 -24.44707993 24.00035947 -24.34765625 15.37890625 C-23.55610487 9.9625603 -20.25785058 6.14084122 -16.3125 2.5625 C-11.17824359 -0.90659217 -6.06684152 -0.60135568 0 0 Z " fill="#363534" transform="translate(247,246)"/>
<path d="M0 0 C1.12426392 0.00737183 1.12426392 0.00737183 2.27124023 0.01489258 C13.81128691 0.25925235 23.03544762 4.96439627 31.01953125 13.27734375 C38.56344177 22.84030575 39.79521766 33.55784724 38.625 45.3125 C35.58105611 58.51240619 27.90905504 68.32957038 16.9453125 75.94921875 C14.625 77.3125 14.625 77.3125 12.625 77.3125 C9.56120593 70.93980834 9.56120593 70.93980834 9.8359375 68.23828125 C10.79197272 65.90498736 11.7655292 65.19146509 13.8125 63.75 C19.62454647 58.91063073 23.41620533 52.95222355 24.13671875 45.32421875 C24.53530115 36.95789609 23.86603624 29.98300826 18.08203125 23.61328125 C12.31956457 18.16728871 6.5496852 16.17695742 -1.3125 15.9375 C-9.03337596 16.17058305 -14.61595797 17.72583701 -20.625 22.625 C-22.60546875 24.1953125 -22.60546875 24.1953125 -24.375 25.3125 C-26.9375 25 -26.9375 25 -29.375 23.3125 C-29.98859375 22.89355469 -30.6021875 22.47460938 -31.234375 22.04296875 C-32.97373297 20.83585432 -34.6772621 19.57748118 -36.375 18.3125 C-33.51142706 10.93962254 -24.23654031 6.44637529 -17.421875 3.1015625 C-11.52931102 0.83000158 -6.24834487 -0.04846945 0 0 Z " fill="#FAD38D" transform="translate(360.375,137.6875)"/>
<path d="M0 0 C0.78383057 0.00572021 1.56766113 0.01144043 2.37524414 0.01733398 C15.53921422 0.41664959 28.29193769 6.97945271 37.3125 16.5 C36.09196141 20.16161578 34.94467696 20.66270474 31.75 22.6875 C30.92371094 23.21730469 30.09742188 23.74710938 29.24609375 24.29296875 C28.60800781 24.69128906 27.96992188 25.08960938 27.3125 25.5 C23.84322438 23.8347477 20.70892472 21.84418483 17.5078125 19.71875 C10.45576657 15.80373518 3.18593193 15.66756667 -4.6875 16.5 C-11.54425303 18.5533592 -16.87233425 22.41635732 -20.6875 28.5 C-24.24967375 35.59961018 -24.07096116 45.2733227 -21.625 52.74609375 C-18.45867544 58.94968073 -14.248817 63.36429979 -8.6875 67.5 C-9.34991789 71.05079859 -10.26231771 74.17457466 -11.6875 77.5 C-22.17604828 73.67259993 -29.31495265 65.73713808 -33.97265625 55.7421875 C-38.10258518 45.58759521 -39.99640599 33.72272796 -36.25 23.0625 C-31.0554237 12.30623953 -21.86399791 5.14463184 -10.87084961 1.13061523 C-7.24786093 0.08419013 -3.75290639 -0.03225058 0 0 Z " fill="#FAD38D" transform="translate(150.6875,137.5)"/>
<path d="M0 0 C3.71988488 0.61998081 4.4425173 2.43554103 6.625 5.4375 C7.72877889 7.1956621 8.81188293 8.96695656 9.875 10.75 C18.40863791 24.18057781 31.19776589 32.58625685 46.625 36.4375 C61.93662322 39.65376556 78.36452427 36.89779953 91.578125 28.578125 C101.00879595 21.93027499 107.11826185 15.14546749 112.92578125 5.23046875 C114.625 2.4375 114.625 2.4375 116.625 0.4375 C119.125 0.1875 119.125 0.1875 121.625 0.4375 C123.625 2.4375 123.625 2.4375 123.93359375 5.203125 C122.91253022 15.9049048 112.86246738 26.0742219 104.95703125 32.66015625 C87.28727576 45.99346963 68.29575796 50.58438354 46.5 47.8125 C34.33091738 45.40873059 24.17097603 40.27167742 14.625 32.4375 C13.91988281 31.90640625 13.21476562 31.3753125 12.48828125 30.828125 C5.47715646 25.26330297 -0.8944166 16.70837086 -4.375 8.4375 C-4.625 5.3125 -4.625 5.3125 -4.375 2.4375 C-2.375 0.4375 -2.375 0.4375 0 0 Z " fill="#363635" transform="translate(196.375,293.5625)"/>
<path d="M0 0 C4.66539527 3.346914 5.84011288 6.62234151 7 12 C9.39719432 12.67958603 9.39719432 12.67958603 12 13 C14.29259286 11.04542055 14.29259286 11.04542055 14.875 7.625 C16.06713333 3.78368148 16.65781509 2.19880586 20 0 C24.81083621 -0.61089984 26.8428993 -0.73857492 30.9375 1.875 C33.35292058 4.36361514 33.92216529 5.31505455 34.3125 8.75 C33.53319757 16.85474528 25.7314973 22.4987604 20.25 27.875 C19.36183594 28.75414062 18.47367187 29.63328125 17.55859375 30.5390625 C15.37687168 32.69732519 13.19060654 34.85076168 11 37 C7.494229 35.49837967 5.21390553 33.47156889 2.5234375 30.7890625 C1.27046875 29.53996094 1.27046875 29.53996094 -0.0078125 28.265625 C-0.87148437 27.39421875 -1.73515625 26.5228125 -2.625 25.625 C-3.49640625 24.76132812 -4.3678125 23.89765625 -5.265625 23.0078125 C-6.09835938 22.1725 -6.93109375 21.3371875 -7.7890625 20.4765625 C-8.54912598 19.71424316 -9.30918945 18.95192383 -10.09228516 18.16650391 C-12.72708231 15.1742861 -13.87049453 13.01445953 -14.375 9.0625 C-13.90977662 5.2631757 -12.63608379 3.71361566 -10 1 C-6.77181502 -0.61409249 -3.49049218 -0.5828653 0 0 Z " fill="#EA5253" transform="translate(246,255)"/>
<path d="M0 0 C4.1321692 2.4410407 6.54519754 4.66515828 8.671875 9.05859375 C9.50810965 14.65609237 9.43994942 19.54893024 6.859375 24.62109375 C3.271875 28.61859375 3.271875 28.61859375 1.671875 30.05859375 C-2.02423208 28.82655806 -2.16940619 27.96426264 -3.953125 24.62109375 C-8.48291253 16.73632642 -14.82626014 10.35072104 -21.328125 4.05859375 C-14.67092291 -0.5274788 -7.95862832 -3.21817017 0 0 Z " fill="#FAFAFA" transform="translate(366.328125,163.94140625)"/>
<path d="M0 0 C1.32073174 0.6502064 2.63654394 1.31107764 3.9375 2 C3.9375 2.99 3.9375 3.98 3.9375 5 C1.99609375 6.91015625 1.99609375 6.91015625 -0.625 9.0625 C-7.41044495 14.96372267 -12.39265175 21.79680979 -16.0625 30 C-17.19449353 29.0919838 -18.31782363 28.17316174 -19.4375 27.25 C-20.06398437 26.73953125 -20.69046875 26.2290625 -21.3359375 25.703125 C-24.89803212 22.18938461 -25.37494307 19.04197475 -25.4375 14.125 C-25.32979821 8.91730189 -24.82041395 5.85427072 -21.0625 2 C-14.12179408 -3.17150637 -7.89490948 -3.47028988 0 0 Z " fill="#FAFAFA" transform="translate(162.0625,165)"/>
<path d="M0 0 C2.93423195 1.79646854 4.47205355 2.9441071 6 6 C6.50866466 12.10397596 6.05703618 15.10769166 2 20 C-1.50240448 21.75120224 -5.17831855 21.54503846 -9 21 C-12.01113945 19.72462069 -12.80962762 18.68320616 -15 16 C-16.50240105 12.05987961 -16.77814959 8.76617355 -15.05859375 4.86328125 C-11.12039173 -0.6681535 -6.45222992 -1.38722943 0 0 Z " fill="#353534" transform="translate(314,225)"/>
<path d="M0 0 C3.07469523 1.70251719 5.40613254 3.81226508 7 7 C7.59968751 12.27725011 6.27164725 14.88707202 3 19 C-1.00254616 21.66836411 -4.29313299 21.8340238 -9 21 C-11.75569447 18.81840855 -13.43588747 17.12822506 -15 14 C-15.5811138 6.91041162 -15.5811138 6.91041162 -13.125 3.0625 C-9.23171593 -0.71627572 -5.22830072 -0.80705313 0 0 Z " fill="#353534" transform="translate(207,225)"/>
</svg>
